<svg xmlns="http://www.w3.org/2000/svg" viewBox="0 0 200 200">
  <defs>
    <radialGradient id="ares-core" cx="50%" cy="45%" r="55%">
      <stop offset="0%" stop-color="#fef3c7"/>
      <stop offset="45%" stop-color="#f59e0b"/>
      <stop offset="100%" stop-color="#b45309"/>
    </radialGradient>
    <linearGradient id="ares-bands" x1="0%" y1="0%" x2="100%" y2="100%">
      <stop offset="0%" stop-color="#fbbf24" stop-opacity="0.35"/>
      <stop offset="50%" stop-color="#fee2e2" stop-opacity="0.15"/>
      <stop offset="100%" stop-color="#9a3412" stop-opacity="0.4"/>
    </linearGradient>
  </defs>
  <rect width="200" height="200" fill="#0f172a"/>
  <g transform="translate(100 100)">
    <circle r="78" fill="url(#ares-core)"/>
    <ellipse rx="92" ry="32" fill="rgba(252, 211, 77, 0.12)" transform="rotate(-12)"/>
    <ellipse rx="88" ry="28" fill="rgba(251, 191, 36, 0.18)" transform="rotate(8) translate(0 -18)"/>
    <ellipse rx="82" ry="24" fill="rgba(217, 119, 6, 0.22)" transform="rotate(-3) translate(0 16)"/>
    <path d="M -70 -12 C -46 -24 -20 -28 10 -22 C 34 -18 52 -6 68 6" stroke="url(#ares-bands)" stroke-width="12" stroke-linecap="round" fill="none" opacity="0.65"/>
    <path d="M -62 20 C -32 6 -4 4 24 12 C 46 18 60 32 70 46" stroke="url(#ares-bands)" stroke-width="9" stroke-linecap="round" fill="none" opacity="0.58"/>
    <circle r="8" fill="#facc15" transform="translate(-48 -42)" opacity="0.9"/>
    <circle r="5" fill="#fde68a" transform="translate(36 28)" opacity="0.85"/>
  </g>
  <g opacity="0.3">
    <circle cx="30" cy="40" r="3" fill="#fef9c3"/>
    <circle cx="170" cy="54" r="2" fill="#e2e8f0"/>
    <circle cx="60" cy="160" r="2.5" fill="#bae6fd"/>
    <circle cx="150" cy="150" r="1.8" fill="#fef3c7"/>
  </g>
</svg>
