<svg width="300" height="400" xmlns="http://www.w3.org/2000/svg">
  <defs>
    <linearGradient id="cellGradient" x1="0%" y1="0%" x2="100%" y2="100%">
      <stop offset="0%" style="stop-color:#90EE90;stop-opacity:1" />
      <stop offset="100%" style="stop-color:#32CD32;stop-opacity:1" />
    </linearGradient>
  </defs>
  
  <!-- Fondo -->
  <rect width="300" height="400" fill="url(#cellGradient)"/>
  
  <!-- Cabeza -->
  <circle cx="150" cy="120" r="60" fill="#90EE90"/>
  
  <!-- Antenas -->
  <line x1="140" y1="60" x2="140" y2="80" stroke="#90EE90" stroke-width="4"/>
  <line x1="160" y1="60" x2="160" y2="80" stroke="#90EE90" stroke-width="4"/>
  
  <!-- Ojos -->
  <circle cx="130" cy="110" r="8" fill="#000000"/>
  <circle cx="170" cy="110" r="8" fill="#000000"/>
  
  <!-- Boca -->
  <path d="M130 140 Q150 150 170 140" stroke="#000000" stroke-width="3" fill="none"/>
  
  <!-- Cuerpo -->
  <rect x="100" y="180" width="100" height="120" fill="#32CD32"/>
  
  <!-- Patrones de Cell -->
  <circle cx="120" cy="200" r="5" fill="#000000"/>
  <circle cx="150" cy="220" r="5" fill="#000000"/>
  <circle cx="180" cy="200" r="5" fill="#000000"/>
  
  <!-- Cinturón -->
  <rect x="100" y="250" width="100" height="20" fill="#8B4513"/>
  
  <!-- Piernas -->
  <rect x="110" y="300" width="30" height="80" fill="#228B22"/>
  <rect x="160" y="300" width="30" height="80" fill="#228B22"/>
  
  <!-- Cola -->
  <path d="M200 200 Q250 220 280 200" stroke="#32CD32" stroke-width="8" fill="none"/>
  
  <!-- Texto -->
  <text x="150" y="380" text-anchor="middle" font-family="Arial" font-size="16" font-weight="bold" fill="#000000">CELL</text>
</svg>
