<svg width="512" height="512" viewBox="0 0 512 512" xmlns="http://www.w3.org/2000/svg">
  <defs>
    <linearGradient id="g1" x1="0%" y1="0%" x2="100%" y2="100%">
      <stop offset="0%" stop-color="#34d399"/>
      <stop offset="100%" stop-color="#60a5fa"/>
    </linearGradient>
    <linearGradient id="shine" x1="0%" y1="0%" x2="100%" y2="0%">
      <stop offset="0%" stop-color="rgba(255,255,255,0.0)"/>
      <stop offset="50%" stop-color="rgba(255,255,255,0.35)"/>
      <stop offset="100%" stop-color="rgba(255,255,255,0.0)"/>
    </linearGradient>
    <filter id="noise">
      <feTurbulence type="fractalNoise" baseFrequency="0.8" numOctaves="2" stitchTiles="stitch"/>
      <feColorMatrix type="saturate" values="0"/>
      <feComponentTransfer>
        <feFuncA type="linear" slope="0.07"/>
      </feComponentTransfer>
    </filter>
  </defs>
  <rect x="24" y="24" width="464" height="464" rx="28" fill="url(#g1)"/>
  <rect x="24" y="24" width="464" height="464" rx="28" fill="#fff" opacity="0.08" filter="url(#noise)"/>
  <g opacity="0.18">
    <circle cx="256" cy="256" r="160" fill="#fff"/>
  </g>
  <g>
    <path d="M256 140c-40 0-72 32-72 72s32 72 72 72 72-32 72-72-32-72-72-72zm0 232c-64 0-120 24-160 64h320c-40-40-96-64-160-64z" fill="#0f172a" fill-opacity="0.15"/>
  </g>
  <rect x="24" y="24" width="464" height="464" rx="28" fill="url(#shine)"/>
</svg>

